<svg width="1332" height="334" viewBox="0 0 1332 334" fill="none" xmlns="http://www.w3.org/2000/svg">
<rect width="1332" height="334" fill="white"/>
<path d="M627.5 126.502H597V245.002H627.5V174.002C627.5 154.5 666 154.5 666 174.002V245.002H696.5V174.002C696.5 156 735.5 155.5 735.5 174.002V245.002H766.5V174.002C766.5 160 756.5 137.5 734 131C712.301 125.425 700.829 127.904 681.5 142.002C662.909 127.874 651.118 125.611 627.5 131.502V126.502Z" fill="#4B4B4B" stroke="#4B4B4B"/>
<path d="M122.5 81H92V245H126V151.5L163 214.5H184.5L221.5 151.5V245H254V81H223.5L173.5 170.5L122.5 81Z" fill="#4B4B4B" stroke="#4B4B4B"/>
<path d="M354 127V132.5C248.541 91.3498 231.042 274.878 354 240.5V245H385V127H354Z" fill="#4B4B4B" stroke="#4B4B4B"/>
<circle cx="326.5" cy="186.5" r="28" fill="white" stroke="#4B4B4B"/>
<path d="M989.782 127.549V133.049C884.322 91.8991 866.824 275.427 989.782 241.049V245.549H1020.78V127.549H989.782Z" fill="#4B4B4B" stroke="#4B4B4B"/>
<circle cx="962.282" cy="187.049" r="28" fill="white" stroke="#4B4B4B"/>
<path d="M467.5 125.5C412.5 125.5 394 167 400.5 244.5H431.5C431.5 182.5 433.204 161.557 467.5 157V125.5Z" fill="#4B4B4B" stroke="#4B4B4B"/>
<path d="M584.5 187C584.5 220.421 557.853 247.5 525 247.5C492.147 247.5 465.5 220.421 465.5 187C465.5 153.579 492.147 126.5 525 126.5C557.853 126.5 584.5 153.579 584.5 187Z" fill="#4B4B4B" stroke="#4B4B4B"/>
<path d="M553.5 186C553.5 201.171 540.757 213.5 525 213.5C509.243 213.5 496.5 201.171 496.5 186C496.5 170.829 509.243 158.5 525 158.5C540.757 158.5 553.5 170.829 553.5 186Z" fill="white" stroke="#4B4B4B"/>
<path d="M1085 81.5L1024 245H1059L1072 209H1128L1141.5 245H1176L1113.5 81.5H1085Z" fill="#EB5864" stroke="#EB5864"/>
<path d="M1084 178L1100.5 133L1116.5 178H1084Z" fill="white" stroke="#EB5864"/>
<path d="M1215 81L1183 91.5V244.5H1215V81Z" fill="#EB5864" stroke="#EB5864"/>
<path d="M812.5 74L781.5 84V191.5C781.5 209.5 801.5 246 841.5 246C874.5 246 900 218.5 900 185.5C900 135.5 847.5 113.5 812.5 133.5V74Z" fill="#4B4B4B" stroke="#4B4B4B"/>
<path d="M868.5 186C868.5 201.18 855.972 213.5 840.5 213.5C825.028 213.5 812.5 201.18 812.5 186C812.5 170.82 825.028 158.5 840.5 158.5C855.972 158.5 868.5 170.82 868.5 186Z" fill="white" stroke="#4B4B4B"/>
</svg>
